<svg width="403" height="2328" fill="none" xmlns="http://www.w3.org/2000/svg"><path d="M122.999 1908.5c73.932-87.68 157.166 131.31 161.598-82.64 3.217-158.07-26.482-289.34-49.011-422.8C215.728 1285.75 47.196 775.105 50.74 636c5.52-217.197 209.189-60.072 198.107-268.093-6.455-122.043-34.329-221.543-71.085-279.092-36.757-57.55-81.793-75.817-127.022-68.006C-50.29 38.293-158.844 197.89-216.528 456.09c-46.891 209.433-56.183 453.189-60.426 683.59-3.611 191.34-4.054 388.75 23.447 550.05 11.523 67.54 27.662 126.7 39.809 193.16 13.074 71.59 21.368 150.91 24.536 234.64 1.579 42.07 1.881 85.39 5.84 125.16 16.773 168.78 1.701-94.93 53.323-88.69 67.39 8.14 184.578-164.36 252.998-245.5z" fill="#FFF279"/></svg>