<svg width="638" height="3074" fill="none" xmlns="http://www.w3.org/2000/svg"><path d="M315.5 1382c49.701 209.59 342.044-61.29 286.644 118.34-35.403 114.77-158.749 156.7-158.857 288.94-.054 43.98 14.567 89.33 30.522 132.59 56.558 152.99 137.472 303.36 248.577 394.29 83.638 68.58 186.443 94.29 264.676 59.49 138.648 95.95 261.568 246.96 402.808 336.99 173.46 110.56 374.83 116.03 505.85-10.55 131.02-126.57 175.65-391.23 87.78-618.05-87.01-224.53-282.24-389.18-329.49-624.52-28.04-139.48 3.78-270.97 4.26-407.89 1.23-355.122-234.03-738.201-506.57-855.792-272.527-117.59-553.237 21.752-676.83 306.895C426.435 614.996 281.688 1240.39 315.5 1382z" fill="#B3D5F1"/></svg>