<svg width="749" height="1583" viewBox="0 0 749 1583" fill="none" xmlns="http://www.w3.org/2000/svg">
<path d="M-264.691 182.823C-394.314 197.783 -508.141 303.802 -532.297 432.04C-556.453 560.277 -488.838 700.318 -373.649 761.451C-342.127 778.124 -307.877 789.255 -275.974 805.166C-232.596 826.825 -192.182 859.44 -174.132 904.456C-150.5 963.377 -169.196 1029.54 -171.96 1093.08C-176.847 1208.76 -121.899 1326.39 -27.2909 1393.16C67.3168 1459.93 199.275 1471.62 302.196 1418.5C353.881 1391.82 397.342 1350.45 429.893 1302.24C487.396 1216.97 510.619 1108.93 491.431 1007.93C472.243 906.933 410.483 814.441 323.489 759.645C290.08 738.573 251.591 721.346 230.931 687.727C206.858 648.569 213.785 598.933 214.424 552.967C215.756 445.736 175.249 336.891 97.8001 262.697C20.3511 188.504 -94.455 152.537 -198.76 177.477C-214.477 181.231 -248.652 180.946 -264.691 182.823Z" fill="#ACE0D2"/>
</svg>
