<svg width="725" height="1503" viewBox="0 0 725 1503" fill="none" xmlns="http://www.w3.org/2000/svg">
<path d="M505.143 142.803C382.488 134.525 258.916 213.315 214.632 328.006C170.349 442.697 209.079 583.998 305.364 660.314C331.723 681.146 361.556 697.309 388.398 717.5C424.89 744.976 456.764 782.098 465.801 826.889C477.633 885.518 449.01 943.629 435.598 1002.02C411.311 1108.38 442.133 1226.75 518.387 1304.77C594.642 1382.79 714.909 1416.16 819.341 1384.52C871.787 1368.63 919.119 1337.73 957.514 1298.61C1025.36 1229.43 1065.33 1133.29 1064.8 1036.44C1064.27 939.58 1022.84 843.334 951.598 777.706C924.242 752.477 891.523 729.941 878.122 695.264C862.506 654.871 877.401 610.065 885.843 567.584C905.392 468.458 886.451 360.69 827.363 278.72C768.275 196.749 668.046 143.816 567.144 149.11C551.94 149.904 520.325 143.803 505.143 142.803Z" fill="#a4f9e2"/>
</svg>
