<svg width="30" height="30" viewBox="0 0 30 30" fill="none" xmlns="http://www.w3.org/2000/svg">
<path d="M24.375 30H5.625C2.51816 30 0 27.4818 0 24.375V5.625C0 2.51816 2.51816 0 5.625 0H24.375C27.4818 0 30 2.51816 30 5.625V24.375C30 27.4818 27.4818 30 24.375 30Z" fill="#5D9947" fill-opacity="0.5"/>
<path d="M13.5662 19.3922C13.449 19.5093 13.2907 19.5748 13.1247 19.5748C12.9588 19.5748 12.8004 19.5093 12.6832 19.3922L9.15339 15.8623C8.78695 15.4959 8.78787 14.9024 9.15339 14.5369L9.59513 14.0951C9.96157 13.7287 10.5551 13.7287 10.9206 14.0951L13.1238 16.2984L19.077 10.3451C19.4435 9.9787 20.037 9.9787 20.4025 10.3451L20.844 10.7869C21.2107 11.1533 21.2107 11.7468 20.844 12.1123L13.5662 19.3922Z" fill="#3E712B"/>
</svg>
