<svg width="40" height="40" viewBox="0 0 40 40" fill="none" xmlns="http://www.w3.org/2000/svg">
<path d="M32.5 40H7.5C3.35754 40 0 36.6425 0 32.5V7.5C0 3.35754 3.35754 0 7.5 0H32.5C36.6425 0 40 3.35754 40 7.5V32.5C40 36.6425 36.6425 40 32.5 40Z" fill="#F8CC60" fill-opacity="0.5"/>
<path d="M18.0886 25.8562C17.9324 26.0125 17.7212 26.0998 17.5 26.0998C17.2787 26.0998 17.0675 26.0125 16.9113 25.8562L12.2048 21.1498C11.7163 20.6612 11.7175 19.8699 12.2048 19.3826L12.7938 18.7936C13.2824 18.305 14.0737 18.305 14.5611 18.7936L17.4987 21.7312L25.4364 13.7936C25.9249 13.305 26.7163 13.305 27.2036 13.7936L27.7923 14.3826C28.2812 14.8711 28.2812 15.6625 27.7923 16.1498L18.0886 25.8562Z" fill="#EB624B"/>
</svg>
