<svg width="100" height="50" viewBox="0 0 100 50" fill="none" xmlns="http://www.w3.org/2000/svg">
<path d="M77.142 0.71582C62.9551 0.71582 53.5664 12.3152 45.2833 22.5514C38.2065 31.2957 31.5238 39.5527 23.3846 39.5527C14.9245 39.5527 9.7302 30.8577 9.7302 24.6243C9.7302 18.8449 15.4284 10.446 24.3591 10.446C33.0249 10.446 37.5395 17.3817 37.7672 17.7372C39.1711 20.0091 42.152 20.7241 44.4353 19.3315C46.7299 17.9336 47.4568 14.94 46.0582 12.6454C45.7613 12.1595 38.6246 0.716486 24.3591 0.716486C10.0045 0.716486 0 13.3177 0 24.6249C0 36.2883 9.60372 49.2836 23.3839 49.2836C36.1642 49.2836 44.6456 38.8059 52.8461 28.6723C60.4322 19.3009 67.5982 10.4467 77.142 10.4467C82.8202 10.4467 86.5513 12.3732 88.5457 16.3313C90.2738 19.7662 90.2725 23.6531 90.2711 24.9997C90.2711 25.7719 89.8631 29.6448 87.9739 33.1323C85.8197 37.1051 82.7616 38.9543 78.3422 38.9543C69.4428 38.9543 64.6346 33.1696 62.8239 30.9908C62.3533 30.4237 62.0145 30.0156 61.5618 29.6282C59.5235 27.8821 56.4507 28.1164 54.7013 30.1574C53.0145 32.1258 53.1769 35.0521 55.0195 36.8235C55.1074 36.9233 55.2132 37.0545 55.3391 37.2069C57.6989 40.0467 64.8742 48.6832 78.3402 48.6832C94.7065 48.6832 99.9993 32.7249 99.9993 24.9332C100.001 19.9705 99.0714 15.605 97.2341 11.9551C94.6546 6.8294 89.0736 0.71582 77.142 0.71582Z" fill="#3274E0"/>
</svg>
