<svg width="749" height="1583" fill="none" xmlns="http://www.w3.org/2000/svg"><path d="M-264.691 182.823c-129.623 14.96-243.45 120.979-267.606 249.217-24.156 128.237 43.459 268.278 158.648 329.411 31.522 16.673 65.772 27.804 97.675 43.715 43.378 21.659 83.792 54.274 101.842 99.29 23.632 58.921 4.936 125.084 2.172 188.624-4.887 115.68 50.061 233.31 144.67 300.08 94.607 66.77 226.565 78.46 329.486 25.34 51.685-26.68 95.146-68.05 127.697-116.26 57.503-85.27 80.726-193.31 61.538-294.31-19.188-100.997-80.948-193.489-167.942-248.285-33.409-21.072-71.898-38.299-92.558-71.918-24.073-39.158-17.146-88.794-16.507-134.76 1.332-107.231-39.175-216.076-116.624-290.27-77.449-74.193-192.255-110.16-296.56-85.22-15.717 3.754-49.892 3.469-65.931 5.346z" fill="#ACE0D2"/></svg>