<svg width="638" height="3074" viewBox="0 0 638 3074" fill="none" xmlns="http://www.w3.org/2000/svg">
<path d="M315.5 1382C365.201 1591.59 657.544 1320.71 602.144 1500.34C566.741 1615.11 443.395 1657.04 443.287 1789.28C443.233 1833.26 457.854 1878.61 473.809 1921.87C530.367 2074.86 611.281 2225.23 722.386 2316.16C806.024 2384.74 908.829 2410.45 987.062 2375.65C1125.71 2471.6 1248.63 2622.61 1389.87 2712.64C1563.33 2823.2 1764.7 2828.67 1895.72 2702.09C2026.74 2575.52 2071.37 2310.86 1983.5 2084.04C1896.49 1859.51 1701.26 1694.86 1654.01 1459.52C1625.97 1320.04 1657.79 1188.55 1658.27 1051.63C1659.5 696.508 1424.24 313.429 1151.7 195.838C879.173 78.2472 598.463 217.59 474.87 502.733C426.435 614.996 281.688 1240.39 315.5 1382Z" fill="#B3D5F1"/>
</svg>
