<svg width="403" height="2328" viewBox="0 0 403 2328" fill="none" xmlns="http://www.w3.org/2000/svg">
<path d="M122.999 1908.5C196.931 1820.82 280.165 2039.81 284.597 1825.86C287.814 1667.79 258.115 1536.52 235.586 1403.06C215.728 1285.75 47.1957 775.105 50.7401 636C56.2591 418.803 259.929 575.928 248.847 367.907C242.392 245.864 214.518 146.364 177.762 88.8145C141.005 31.2647 95.9685 12.998 50.7401 20.8094C-50.2908 38.2928 -158.844 197.889 -216.528 456.09C-263.419 665.523 -272.711 909.279 -276.954 1139.68C-280.565 1331.02 -281.008 1528.43 -253.507 1689.73C-241.984 1757.27 -225.845 1816.43 -213.698 1882.89C-200.624 1954.48 -192.33 2033.8 -189.162 2117.53C-187.583 2159.6 -187.281 2202.92 -183.322 2242.69C-166.549 2411.47 -181.621 2147.76 -129.999 2154C-62.6099 2162.14 54.5791 1989.64 122.999 1908.5Z" fill="#FFF279"/>
</svg>
