<svg width="725" height="1503" fill="none" xmlns="http://www.w3.org/2000/svg"><path d="M505.143 142.803c-122.655-8.278-246.227 70.512-290.511 185.203-44.283 114.691-5.553 255.992 90.732 332.308 26.359 20.832 56.192 36.995 83.034 57.186 36.492 27.476 68.366 64.598 77.403 109.389 11.832 58.629-16.791 116.74-30.203 175.131-24.287 106.36 6.535 224.73 82.789 302.75 76.255 78.02 196.522 111.39 300.954 79.75 52.446-15.89 99.778-46.79 138.173-85.91 67.846-69.18 107.816-165.32 107.286-262.17-.53-96.86-41.96-193.106-113.202-258.734-27.356-25.229-60.075-47.765-73.476-82.442-15.616-40.393-.721-85.199 7.721-127.68 19.549-99.126.608-206.894-58.48-288.864-59.088-81.971-159.317-134.904-260.219-129.61-15.204.794-46.819-5.307-62.001-6.307z" fill="#a4f9e2"/></svg>