<svg width="227" height="1817" fill="none" xmlns="http://www.w3.org/2000/svg"><path d="M149.499 10.5C72.346 72.423 37.109 226.166 24.032 392.219 14.43 514.906 38.68 619.545 55.703 725.276c15.02 92.937 74.957 173.316 65.796 281.224C107.209 1174.99-2.024 1366.62.584 1529.38c1.485 95.49 25.205 175.25 59.467 223.14 34.263 47.89 78.359 65.93 123.702 63.69 101.288-5.02 215.82-119.95 283.702-315.9 55.163-158.93 74.284-347.76 87.838-526.626 11.343-148.53 19.777-302.057-1.069-429.871-8.737-53.517-22.408-100.908-31.81-153.635-10.116-56.802-15.161-119.204-14.925-184.604.132-32.863 1.585-66.584-.746-97.863-9.864-132.712-5.537 73.704-56.676 64.466C383.308 160.121 220.9-46.81 149.499 10.5z" fill="#BBB1F9"/></svg>