<svg width="683" height="1996" viewBox="0 0 683 1996" fill="none" xmlns="http://www.w3.org/2000/svg">
<path d="M378.914 841.055C434.11 948.622 588.933 1017.43 558.221 1142.09C538.594 1221.74 443.52 1287.43 453.294 1365.72C456.53 1391.76 471.552 1413.76 487.48 1434.07C543.915 1505.87 619.544 1568.05 714.778 1585.05C786.477 1597.92 870.241 1579.08 929.929 1532.56C1047.46 1543.41 1156.58 1592.05 1275.74 1598.53C1422.08 1606.48 1582.8 1543 1677.68 1424.68C1772.55 1306.36 1788.35 1134.95 1701.48 1029.83C1615.47 925.78 1447.76 893.028 1392.6 769.413C1359.88 696.158 1375.4 607.802 1365.58 526.614C1340.08 316.045 1124.22 167.29 898.477 188C672.739 208.709 459.647 384.181 382.512 593.878C352.322 676.364 341.437 768.451 378.914 841.055Z" fill="#95CFFF"/>
</svg>
