<svg width="818" height="1512" viewBox="0 0 818 1512" fill="none" xmlns="http://www.w3.org/2000/svg">
<path d="M471.537 1333.1C485.562 1299.78 485.086 1261.18 470.171 1222.44C442.242 1151.37 375.316 1085.57 324.316 1020.61C266.833 947.326 213.805 871.811 176.716 793.496C144.115 724.704 124.852 653.452 126.025 586.087C127.387 516.597 160.041 459.193 180.388 396.359C202.059 329.581 188.006 261.578 86.5004 220.878C22.5481 195.235 -46.0305 187.201 -109.341 189.941C-172.651 192.681 -284.941 198.83 -319.681 240.294C-352.157 279.378 -306.764 343.019 -306.379 394.977C-306.043 439.836 -340.393 474.321 -383.172 496.164C-425.951 518.008 -477.325 529.73 -524.561 546.373C-660.936 594.421 -767.285 697.454 -746.803 829.789C-733.204 917.428 -664.495 1007.41 -573.221 1073.41C-481.946 1139.4 -369.824 1182.76 -259.31 1205.59C-182.016 1221.55 -125.3 1274.74 -48.7269 1298.56C41.1933 1326.54 109.339 1329.93 184.733 1376.4C258.634 1421.9 357.68 1427.57 417.44 1393.32C442.781 1378.52 461.373 1357.82 471.537 1333.1Z" fill="#ffbdbd"/>
</svg>
