<svg width="100" height="50" fill="none" xmlns="http://www.w3.org/2000/svg"><path d="M77.142.716c-14.187 0-23.576 11.6-31.859 21.835-7.077 8.745-13.76 17.002-21.898 17.002-8.46 0-13.655-8.695-13.655-14.929 0-5.78 5.698-14.178 14.63-14.178 8.665 0 13.18 6.936 13.407 7.291a4.864 4.864 0 008.291-5.092C45.761 12.16 38.625.716 24.36.716 10.004.716 0 13.318 0 24.625c0 11.663 9.604 24.659 23.384 24.659 12.78 0 21.262-10.478 29.462-20.612 7.586-9.371 14.752-18.225 24.296-18.225 5.678 0 9.41 1.926 11.404 5.884 1.728 3.435 1.726 7.322 1.725 8.669 0 .772-.408 4.645-2.297 8.132-2.154 3.973-5.212 5.822-9.632 5.822-8.9 0-13.707-5.784-15.518-7.963-.47-.567-.81-.975-1.262-1.363a4.867 4.867 0 00-6.86.53 4.863 4.863 0 00.318 6.666c.087.1.193.23.32.383 2.359 2.84 9.534 11.476 23 11.476 16.367 0 21.66-15.958 21.66-23.75.001-4.962-.929-9.328-2.766-12.978C94.654 6.83 89.074.715 77.142.715z" fill="#3274E0"/></svg>