<svg width="683" height="1996" fill="none" xmlns="http://www.w3.org/2000/svg"><path d="M378.914 841.055c55.196 107.567 210.019 176.375 179.307 301.035-19.627 79.65-114.701 145.34-104.927 223.63 3.236 26.04 18.258 48.04 34.186 68.35 56.435 71.8 132.064 133.98 227.298 150.98 71.699 12.87 155.463-5.97 215.151-52.49 117.531 10.85 226.651 59.49 345.811 65.97 146.34 7.95 307.06-55.53 401.94-173.85 94.87-118.32 110.67-289.73 23.8-394.85-86.01-104.05-253.72-136.802-308.88-260.417-32.72-73.255-17.2-161.611-27.02-242.799C1340.08 316.045 1124.22 167.29 898.477 188c-225.738 20.709-438.83 196.181-515.965 405.878-30.19 82.486-41.075 174.573-3.598 247.177z" fill="#95CFFF"/></svg>