<svg width="818" height="1512" fill="none" xmlns="http://www.w3.org/2000/svg"><path d="M471.537 1333.1c14.025-33.32 13.549-71.92-1.366-110.66-27.929-71.07-94.855-136.87-145.855-201.83-57.483-73.284-110.511-148.799-147.6-227.114-32.601-68.792-51.864-140.044-50.691-207.409 1.362-69.49 34.016-126.894 54.363-189.728 21.671-66.778 7.618-134.781-93.888-175.481-63.952-25.643-132.53-33.677-195.841-30.937-63.31 2.74-175.6 8.889-210.34 50.353-32.476 39.084 12.917 102.725 13.302 154.683.336 44.859-34.014 79.344-76.793 101.187-42.779 21.844-94.153 33.566-141.389 50.209-136.375 48.048-242.724 151.081-222.242 283.416 13.599 87.639 82.308 177.621 173.582 243.621 91.275 65.99 203.397 109.35 313.911 132.18 77.294 15.96 134.01 69.15 210.583 92.97 89.92 27.98 158.066 31.37 233.46 77.84 73.901 45.5 172.947 51.17 232.707 16.92 25.341-14.8 43.933-35.5 54.097-60.22z" fill="#ffbdbd"/></svg>