<svg width="227" height="1817" viewBox="0 0 227 1817" fill="none" xmlns="http://www.w3.org/2000/svg">
<path d="M149.499 10.5C72.3463 72.423 37.1085 226.166 24.0323 392.219C14.4292 514.906 38.6799 619.545 55.7032 725.276C70.7227 818.213 130.66 898.592 121.499 1006.5C107.209 1174.99 -2.02416 1366.62 0.584291 1529.38C2.06919 1624.87 25.7893 1704.63 60.0514 1752.52C94.3136 1800.41 138.41 1818.45 183.753 1816.21C285.041 1811.19 399.573 1696.26 467.455 1500.31C522.618 1341.38 541.739 1152.55 555.293 973.684C566.636 825.154 575.07 671.627 554.224 543.813C545.487 490.296 531.816 442.905 522.414 390.178C512.298 333.376 507.253 270.974 507.489 205.574C507.621 172.711 509.074 138.99 506.743 107.711C496.879 -25.0008 501.206 181.415 450.067 172.177C383.308 160.121 220.9 -46.8099 149.499 10.5Z" fill="#BBB1F9"/>
</svg>
